<svg width="27" height="27" viewBox="0 0 27 27" fill="none" xmlns="http://www.w3.org/2000/svg">
<path d="M13.1009 26.3814C20.3364 26.3814 26.2019 20.5159 26.2019 13.2804C26.2019 6.045 20.3364 0.179504 13.1009 0.179504C5.86549 0.179504 0 6.045 0 13.2804C0 20.5159 5.86549 26.3814 13.1009 26.3814Z" fill="#4D76A1"/>
<path fill-rule="evenodd" clip-rule="evenodd" d="M12.6084 19.0268H13.6367C13.6367 19.0268 13.9473 18.9927 14.1058 18.8217C14.2518 18.6648 14.2471 18.3701 14.2471 18.3701C14.2471 18.3701 14.227 16.9904 14.8674 16.7872C15.4986 16.587 16.3093 18.1207 17.1684 18.7104C17.8181 19.1566 18.3118 19.0588 18.3118 19.0588L20.6091 19.0268C20.6091 19.0268 21.8109 18.9528 21.2411 18.0079C21.1944 17.9306 20.9092 17.3089 19.533 16.0315C18.0925 14.6945 18.2854 14.9107 20.0206 12.598C21.0774 11.1895 21.4998 10.3297 21.3679 9.96137C21.242 9.61059 20.4648 9.70331 20.4648 9.70331L17.8782 9.71942C17.8782 9.71942 17.6864 9.69327 17.5442 9.77827C17.4052 9.86165 17.3158 10.0559 17.3158 10.0559C17.3158 10.0559 16.9064 11.1459 16.3604 12.0728C15.2086 14.0286 14.7481 14.1319 14.5598 14.0104C14.122 13.7274 14.2312 12.8733 14.2312 12.2666C14.2312 10.3712 14.5187 9.58094 13.6715 9.37636C13.3903 9.3084 13.1834 9.26356 12.4643 9.25632C11.5414 9.24674 10.7602 9.25912 10.3179 9.47584C10.0236 9.61994 9.79662 9.94105 9.93487 9.9595C10.1058 9.98238 10.493 10.0639 10.6983 10.3434C10.9634 10.704 10.954 11.5139 10.954 11.5139C10.954 11.5139 11.1063 13.7451 10.5984 14.0223C10.2497 14.2124 9.7714 13.8243 8.74454 12.0499C8.21838 11.141 7.82113 10.1363 7.82113 10.1363C7.82113 10.1363 7.74453 9.94852 7.60791 9.8481C7.4421 9.72643 7.21043 9.68766 7.21043 9.68766L4.75246 9.70378C4.75246 9.70378 4.38347 9.71405 4.24802 9.87449C4.12752 10.0172 4.23845 10.3124 4.23845 10.3124C4.23845 10.3124 6.16279 14.8145 8.34169 17.0833C10.3396 19.1634 12.6084 19.0268 12.6084 19.0268Z" fill="white"/>
</svg>
