<svg width="18" height="18" viewBox="0 0 18 18" fill="none" xmlns="http://www.w3.org/2000/svg">
<path d="M11.7031 9L16.7656 3.98438C17.0469 3.70312 17.0469 3.1875 16.7656 2.90625L15.5938 1.73438C15.3125 1.45312 14.7969 1.45312 14.5156 1.73438L9.5 6.79688L4.4375 1.73438C4.15625 1.45312 3.64062 1.45312 3.35938 1.73438L2.1875 2.90625C1.90625 3.1875 1.90625 3.70312 2.1875 3.98438L7.25 9L2.1875 14.0625C1.90625 14.3438 1.90625 14.8594 2.1875 15.1406L3.35938 16.3125C3.64062 16.5938 4.15625 16.5938 4.4375 16.3125L9.5 11.25L14.5156 16.3125C14.7969 16.5938 15.3125 16.5938 15.5938 16.3125L16.7656 15.1406C17.0469 14.8594 17.0469 14.3438 16.7656 14.0625L11.7031 9Z" fill="white"/>
<path d="M11.7031 9L10.9993 8.28961L10.2856 8.9967L10.996 9.70711L11.7031 9ZM16.7656 3.98438L17.4694 4.69477L17.4727 4.69148L16.7656 3.98438ZM14.5156 1.73438L13.8085 1.02726L13.8052 1.03056L14.5156 1.73438ZM9.5 6.79688L8.79289 7.50398L9.5033 8.21439L10.2104 7.50069L9.5 6.79688ZM2.1875 3.98438L1.48039 4.69149L1.48369 4.69476L2.1875 3.98438ZM7.25 9L7.95711 9.70711L8.66751 8.9967L7.95381 8.28961L7.25 9ZM9.5 11.25L10.2104 10.5462L9.5033 9.83249L8.79289 10.5429L9.5 11.25ZM14.5156 16.3125L13.8052 17.0163L13.8085 17.0196L14.5156 16.3125ZM12.4069 9.71039L17.4694 4.69476L16.0618 3.27399L10.9993 8.28961L12.4069 9.71039ZM17.4727 4.69148C18.1445 4.01971 18.1445 2.87092 17.4727 2.19914L16.0585 3.61336C15.9833 3.53816 15.9766 3.46843 15.9766 3.44531C15.9766 3.42219 15.9833 3.35247 16.0585 3.27727L17.4727 4.69148ZM17.4727 2.19914L16.3009 1.02727L14.8866 2.44148L16.0585 3.61336L17.4727 2.19914ZM16.3009 1.02727C15.6291 0.355494 14.4803 0.355494 13.8085 1.02727L15.2227 2.44148C15.1475 2.51668 15.0778 2.52344 15.0547 2.52344C15.0316 2.52344 14.9618 2.51668 14.8866 2.44148L16.3009 1.02727ZM13.8052 1.03056L8.78961 6.09306L10.2104 7.50069L15.226 2.43819L13.8052 1.03056ZM10.2071 6.08977L5.14461 1.02727L3.73039 2.44148L8.79289 7.50398L10.2071 6.08977ZM5.14461 1.02727C4.47283 0.355494 3.32404 0.355494 2.65227 1.02727L4.06648 2.44148C3.99128 2.51668 3.92156 2.52344 3.89844 2.52344C3.87532 2.52344 3.80559 2.51668 3.73039 2.44148L5.14461 1.02727ZM2.65227 1.02727L1.48039 2.19914L2.89461 3.61336L4.06648 2.44148L2.65227 1.02727ZM1.48039 2.19914C0.808619 2.87092 0.808619 4.01971 1.48039 4.69148L2.89461 3.27727C2.96981 3.35247 2.97656 3.42219 2.97656 3.44531C2.97656 3.46843 2.96981 3.53816 2.89461 3.61336L1.48039 2.19914ZM1.48369 4.69476L6.54619 9.71039L7.95381 8.28961L2.89131 3.27399L1.48369 4.69476ZM6.54289 8.29289L1.48039 13.3554L2.89461 14.7696L7.95711 9.70711L6.54289 8.29289ZM1.48039 13.3554C0.808619 14.0272 0.808619 15.176 1.48039 15.8477L2.89461 14.4335C2.96981 14.5087 2.97656 14.5784 2.97656 14.6016C2.97656 14.6247 2.96981 14.6944 2.89461 14.7696L1.48039 13.3554ZM1.48039 15.8477L2.65227 17.0196L4.06648 15.6054L2.89461 14.4335L1.48039 15.8477ZM2.65227 17.0196C3.32404 17.6914 4.47283 17.6914 5.14461 17.0196L3.73039 15.6054C3.80559 15.5302 3.87532 15.5234 3.89844 15.5234C3.92156 15.5234 3.99128 15.5302 4.06648 15.6054L2.65227 17.0196ZM5.14461 17.0196L10.2071 11.9571L8.79289 10.5429L3.73039 15.6054L5.14461 17.0196ZM8.78961 11.9538L13.8052 17.0163L15.226 15.6087L10.2104 10.5462L8.78961 11.9538ZM13.8085 17.0196C14.4803 17.6914 15.6291 17.6914 16.3009 17.0196L14.8866 15.6054C14.9618 15.5302 15.0316 15.5234 15.0547 15.5234C15.0778 15.5234 15.1475 15.5302 15.2227 15.6054L13.8085 17.0196ZM16.3009 17.0196L17.4727 15.8477L16.0585 14.4335L14.8866 15.6054L16.3009 17.0196ZM17.4727 15.8477C18.1445 15.176 18.1445 14.0272 17.4727 13.3554L16.0585 14.7696C15.9833 14.6944 15.9766 14.6247 15.9766 14.6016C15.9766 14.5784 15.9833 14.5087 16.0585 14.4335L17.4727 15.8477ZM17.4727 13.3554L12.4102 8.29289L10.996 9.70711L16.0585 14.7696L17.4727 13.3554Z" fill="black"/>
</svg>
