<svg width="21" height="22" viewBox="0 0 21 22" fill="none" xmlns="http://www.w3.org/2000/svg">
<path d="M18.75 0.0386658H2.25C0.984375 0.0386658 0 1.06992 0 2.28867V18.7887C0 20.0543 0.984375 21.0387 2.25 21.0387H18.75C19.9688 21.0387 21 20.0543 21 18.7887V2.28867C21 1.06992 19.9688 0.0386658 18.75 0.0386658ZM18 15.2262C18 15.5543 17.7188 15.7887 17.4375 15.7887H15V16.9137C15 17.5699 14.4844 18.0387 13.875 18.0387H13.125C12.4688 18.0387 12 17.5699 12 16.9137V15.7887H3.5625C3.23438 15.7887 3 15.5543 3 15.2262V13.3512C3 13.0699 3.23438 12.7887 3.5625 12.7887H12V11.6637C12 11.0543 12.4688 10.5387 13.125 10.5387H13.875C14.4844 10.5387 15 11.0543 15 11.6637V12.7887H17.4375C17.7188 12.7887 18 13.0699 18 13.3512V15.2262ZM18 7.72617C18 8.05429 17.7188 8.28867 17.4375 8.28867H9V9.41367C9 10.0699 8.48438 10.5387 7.875 10.5387H7.125C6.46875 10.5387 6 10.0699 6 9.41367V8.28867H3.5625C3.23438 8.28867 3 8.05429 3 7.72617V5.85117C3 5.56992 3.23438 5.28867 3.5625 5.28867H6V4.16367C6 3.55429 6.46875 3.03867 7.125 3.03867H7.875C8.48438 3.03867 9 3.55429 9 4.16367V5.28867H17.4375C17.7188 5.28867 18 5.56992 18 5.85117V7.72617Z" fill="black"/>
</svg>
