<svg width="11" height="11" viewBox="0 0 11 11" fill="none" xmlns="http://www.w3.org/2000/svg">
<path d="M10.9068 5.36825L10.4345 4.87799C10.3102 4.75543 10.1113 4.75543 10.0119 4.87799L6.15876 8.67744V0.29415C6.15876 0.147075 6.0096 0 5.86045 0H5.16441C4.9904 0 4.8661 0.147075 4.8661 0.29415V8.67744L0.988136 4.87799C0.888701 4.75543 0.689831 4.75543 0.565537 4.87799L0.0932203 5.36825C-0.0310734 5.4663 -0.0310734 5.6624 0.0932203 5.78496L5.2887 10.9081C5.41299 11.0306 5.58701 11.0306 5.7113 10.9081L10.9068 5.78496C11.0311 5.6624 11.0311 5.4663 10.9068 5.36825Z" fill="#FDD835"/>
</svg>
