<svg width="27" height="22" viewBox="0 0 27 22" fill="none" xmlns="http://www.w3.org/2000/svg">
<path d="M22.5 18.5H20.25V18.9688C20.25 19.1562 20.1094 19.25 19.9688 19.25H2.53125C2.34375 19.25 2.25 19.1562 2.25 18.9688V7.53125C2.25 7.39062 2.34375 7.25 2.53125 7.25H3V5H2.25C0.984375 5 0 6.03125 0 7.25V19.25C0 20.5156 0.984375 21.5 2.25 21.5H20.25C21.4688 21.5 22.5 20.5156 22.5 19.25V18.5ZM24.4688 2.75C24.6094 2.75 24.75 2.89062 24.75 3.03125V14.4688C24.75 14.6562 24.6094 14.75 24.4688 14.75H7.03125C6.84375 14.75 6.75 14.6562 6.75 14.4688V3.03125C6.75 2.89062 6.84375 2.75 7.03125 2.75H24.4688ZM24.75 0.5H6.75C5.48438 0.5 4.5 1.53125 4.5 2.75V14.75C4.5 16.0156 5.48438 17 6.75 17H24.75C25.9688 17 27 16.0156 27 14.75V2.75C27 1.53125 25.9688 0.5 24.75 0.5ZM12.375 5.75C12.375 4.71875 11.5312 3.875 10.5 3.875C9.42188 3.875 8.625 4.71875 8.625 5.75C8.625 6.82812 9.42188 7.625 10.5 7.625C11.5312 7.625 12.375 6.82812 12.375 5.75ZM9 10.25V12.5H22.5V8.75L19.125 5.42188C18.8906 5.1875 18.5625 5.1875 18.3281 5.42188L13.5 10.25L11.625 8.42188C11.3906 8.1875 11.0625 8.1875 10.8281 8.42188L9 10.25Z" fill="black"/>
</svg>
