<svg width="10" height="15" viewBox="0 0 10 15" fill="none" xmlns="http://www.w3.org/2000/svg">
<path d="M5.01367 0.75C2.82617 0.75 1.4043 1.65234 0.283203 3.26562C0.0917969 3.53906 0.146484 3.94922 0.447266 4.14062L1.62305 5.04297C1.89648 5.26172 2.30664 5.20703 2.52539 4.93359C3.20898 4.08594 3.72852 3.59375 4.79492 3.59375C5.64258 3.59375 6.68164 4.11328 6.68164 4.93359C6.68164 5.5625 6.16211 5.86328 5.3418 6.32812C4.35742 6.875 3.07227 7.55859 3.07227 9.25391V9.5C3.07227 9.88281 3.37305 10.1562 3.72852 10.1562H5.72461C6.08008 10.1562 6.38086 9.88281 6.38086 9.5V9.36328C6.38086 8.1875 9.79883 8.13281 9.79883 4.96094C9.79883 2.58203 7.31055 0.75 5.01367 0.75ZM4.74023 10.9766C3.67383 10.9766 2.82617 11.8242 2.82617 12.8633C2.82617 13.9023 3.67383 14.75 4.74023 14.75C5.7793 14.75 6.62695 13.9023 6.62695 12.8633C6.62695 11.8242 5.7793 10.9766 4.74023 10.9766Z" fill="black"/>
</svg>
