<svg width="44" height="44" viewBox="0 0 44 44" fill="none" xmlns="http://www.w3.org/2000/svg">
<path d="M40.1328 7.82031H38.8438V6.53125C38.8438 4.39888 37.1089 2.66406 34.9766 2.66406C32.8442 2.66406 31.1094 4.39888 31.1094 6.53125V7.82031H27.1401L26.3028 5.30836C25.7755 3.72668 24.3011 2.66406 22.634 2.66406H10.8817C9.21448 2.66406 7.74013 3.72668 7.21291 5.30836L6.37553 7.82031H3.86719C1.73482 7.82031 0 9.55513 0 11.6875V37.4688C0 39.6011 1.73482 41.3359 3.86719 41.3359H40.1328C42.2652 41.3359 44 39.6011 44 37.4688V11.6875C44 9.55513 42.2652 7.82031 40.1328 7.82031ZM33.6875 6.53125C33.6875 5.82046 34.2658 5.24219 34.9766 5.24219C35.6874 5.24219 36.2656 5.82046 36.2656 6.53125V7.82031H33.6875V6.53125ZM9.65869 6.12365C9.83443 5.59642 10.3259 5.24219 10.8817 5.24219H22.634C23.1898 5.24219 23.6812 5.59642 23.8569 6.12365L24.4224 7.82031H9.09313L9.65869 6.12365ZM2.57812 20.7109H9.11874C8.23874 22.2287 7.73438 23.9901 7.73438 25.8672C7.73438 27.7443 8.23874 29.5057 9.11874 31.0234H2.57812V20.7109ZM41.4219 37.4688C41.4219 38.1795 40.8436 38.7578 40.1328 38.7578H3.86719C3.1564 38.7578 2.57812 38.1795 2.57812 37.4688V33.6016H11.2338C13.0521 35.2052 15.4376 36.1797 18.0469 36.1797C20.6561 36.1797 23.0416 35.2052 24.8599 33.6016H41.4219V37.4688ZM10.3125 25.8672C10.3125 21.6025 13.7821 18.1328 18.0469 18.1328C22.3116 18.1328 25.7812 21.6025 25.7812 25.8672C25.7812 30.1319 22.3116 33.6016 18.0469 33.6016C13.7821 33.6016 10.3125 30.1319 10.3125 25.8672ZM41.4219 31.0234H26.975C27.855 29.5057 28.3594 27.7443 28.3594 25.8672C28.3594 23.9901 27.855 22.2287 26.975 20.7109H31.1094V22C31.1094 22.7119 31.6865 23.2891 32.3984 23.2891H37.5547C38.2666 23.2891 38.8438 22.7119 38.8438 22V20.7109H41.4219V31.0234ZM33.6875 20.7109V18.1328H36.2656V20.7109H33.6875ZM41.4219 18.1328H38.8438V16.8438C38.8438 16.1318 38.2666 15.5547 37.5547 15.5547H32.3984C31.6865 15.5547 31.1094 16.1318 31.1094 16.8438V18.1328H24.8599C23.0416 16.5292 20.6561 15.5547 18.0469 15.5547C15.4376 15.5547 13.0521 16.5292 11.2338 18.1328H2.57812V11.6875C2.57812 10.9767 3.1564 10.3984 3.86719 10.3984C5.19114 10.3984 38.6822 10.3984 40.1328 10.3984C40.8436 10.3984 41.4219 10.9767 41.4219 11.6875V18.1328Z" fill="black"/>
<path d="M18.0469 20.7109C15.2037 20.7109 12.8906 23.024 12.8906 25.8672C12.8906 28.7103 15.2037 31.0234 18.0469 31.0234C20.89 31.0234 23.2031 28.7103 23.2031 25.8672C23.2031 23.024 20.89 20.7109 18.0469 20.7109ZM18.0469 28.4453C16.6253 28.4453 15.4688 27.2888 15.4688 25.8672C15.4688 24.4456 16.6253 23.2891 18.0469 23.2891C19.4685 23.2891 20.625 24.4456 20.625 25.8672C20.625 27.2888 19.4685 28.4453 18.0469 28.4453Z" fill="black"/>
<path d="M6.44531 15.5464C7.15724 15.5464 7.73438 14.9693 7.73438 14.2573C7.73438 13.5454 7.15724 12.9683 6.44531 12.9683C5.73338 12.9683 5.15625 13.5454 5.15625 14.2573C5.15625 14.9693 5.73338 15.5464 6.44531 15.5464Z" fill="black"/>
</svg>
