<svg width="24" height="24" viewBox="0 0 24 24" fill="none" xmlns="http://www.w3.org/2000/svg">
<path d="M14.5611 14.4023L13.6581 11.609L13.6516 11.5898C13.3636 10.764 12.5892 10.2095 11.7246 10.2095L5.21315 10.2099C4.34853 10.2099 3.57413 10.7645 3.28628 11.5898L2.37469 14.4105C2.0517 14.5471 1.75465 14.7499 1.50018 15.0134C1.00882 15.5215 0.738281 16.1877 0.738281 16.8892V21.5035C0.738281 22.4726 1.52682 23.2613 2.49609 23.2613C3.39093 23.2613 4.13113 22.5891 4.23962 21.7232H12.7057C12.8142 22.5891 13.5544 23.2613 14.4492 23.2613C15.3692 23.2613 16.207 22.5281 16.207 21.7232V16.8453C16.207 15.7415 15.5252 14.7947 14.5611 14.4023ZM5.21329 11.9677L11.7246 11.9673C11.8385 11.9673 11.9464 12.0471 11.9895 12.1625L12.6509 14.2085H4.28714L4.94824 12.1625C4.99123 12.0474 5.09917 11.9677 5.21329 11.9677ZM14.4492 19.0865C14.4492 19.571 14.0549 19.9654 13.5703 19.9654H3.375C2.89037 19.9654 2.49609 19.571 2.49609 19.0865V16.8892C2.49609 16.3889 2.8986 15.9664 3.375 15.9664H13.5703C14.0549 15.9664 14.4492 16.3606 14.4492 16.8453V19.0865ZM6.49512 17.065H10.4941V18.8228H6.49512V17.065ZM13.3506 17.9439C13.3506 18.4291 12.9571 18.8228 12.4717 18.8228C11.9862 18.8228 11.5928 18.4291 11.5928 17.9439C11.5928 17.4584 11.9862 17.065 12.4717 17.065C12.9571 17.065 13.3506 17.4584 13.3506 17.9439ZM5.39648 17.9439C5.39648 18.4291 5.00304 18.8228 4.51758 18.8228C4.03212 18.8228 3.63867 18.4291 3.63867 17.9439C3.63867 17.4584 4.03212 17.065 4.51758 17.065C5.00304 17.065 5.39648 17.4584 5.39648 17.9439ZM19.5029 13.066C19.0175 13.066 18.624 12.6722 18.624 12.1871C18.624 11.7016 19.0175 11.3081 19.5029 11.3081C19.9884 11.3081 20.3818 11.7016 20.3818 12.1871C20.3818 12.6722 19.9884 13.066 19.5029 13.066ZM6.27539 7.30912C6.76085 7.30912 7.1543 7.70257 7.1543 8.18803C7.1543 8.67321 6.76085 9.06693 6.27539 9.06693C5.78993 9.06693 5.39648 8.67321 5.39648 8.18803C5.39648 7.70257 5.78993 7.30912 6.27539 7.30912ZM2.50914 9.59153C2.50049 9.50584 2.49609 9.41891 2.49609 9.33102V7.30912C2.49609 6.60764 2.76663 5.94146 3.258 5.4332C3.51521 5.16692 3.8161 4.96244 4.14336 4.82621L5.04561 2.13703C5.33469 1.31415 6.10785 0.761675 6.97096 0.761675H13.4824C14.3455 0.761675 15.1187 1.31415 15.4078 2.13703L15.6088 2.87036H13.7384C13.691 2.76641 13.5897 2.5188 13.4824 2.5188H6.97096C6.85492 2.5188 6.74505 2.6023 6.70372 2.72054L6.70111 2.72795L6.08203 4.62845H9.04669C8.88876 4.87565 8.75747 5.14357 8.65777 5.42922L8.64775 5.45806L8.34782 6.38627H5.13281C4.65642 6.38627 4.25391 6.80883 4.25391 7.30912V8.57694C3.58923 8.75204 2.98691 9.10497 2.50914 9.59153ZM23.2383 11.0884V15.9664C23.2383 16.7712 22.4004 17.5044 21.4805 17.5044C20.5856 17.5044 19.8454 16.8322 19.7369 15.9664H17.8764C17.7443 15.3171 17.4684 14.7197 17.0837 14.2085H20.6016C21.0862 14.2085 21.4805 13.8141 21.4805 13.3296V11.0884C21.4805 10.6038 21.0862 10.2095 20.6016 10.2095H14.9219C14.2331 9.13189 13.035 8.4517 11.7243 8.4517H19.6635L19.0217 6.58306C18.9818 6.4688 18.8719 6.38627 18.7559 6.38627H12.2444C12.1289 6.38627 12.0196 6.46811 11.9778 6.58567L11.3386 8.49523L9.48038 8.49564L10.3175 6.0082C10.6054 5.18285 11.3798 4.62845 12.2444 4.62845H18.7559C19.6205 4.62845 20.3949 5.18285 20.6827 6.0082L21.5879 8.64368C22.5544 9.03507 23.2383 9.98319 23.2383 11.0884ZM15.9765 13.066L15.408 11.3081H17.5254V13.066H15.9765Z" fill="#939393"/>
</svg>
