<svg width="62" height="62" viewBox="0 0 62 62" fill="none" xmlns="http://www.w3.org/2000/svg">
<g clip-path="url(#clip0)">
<path d="M57.905 23.4893L59.7211 21.6731C60.2463 21.1482 60.5355 20.4501 60.5355 19.7077C60.5355 18.9652 60.2463 18.2671 59.7213 17.7422L57.641 15.6619C57.1161 15.137 56.4179 14.8478 55.6756 14.8478C54.9331 14.8478 54.2351 15.137 53.7102 15.6619L51.8939 17.4782C49.4967 15.8271 46.7766 14.6133 43.8487 13.9529V11.2684H44.9538C46.4501 11.2684 47.6676 10.0509 47.6676 8.55459V4.77913C47.6676 3.28266 46.4501 2.06519 44.9538 2.06519H32.4596C30.9632 2.06519 29.7458 3.28266 29.7458 4.77913V8.55447C29.7458 10.0508 30.9632 11.2683 32.4596 11.2683H33.5646V13.9603C30.6501 14.6225 27.9421 15.8335 25.5545 17.4781L23.7382 15.6618C23.2133 15.1369 22.5152 14.8477 21.7729 14.8477C21.0303 14.8477 20.3323 15.1369 19.8074 15.6618L17.7271 17.7421C16.6435 18.8259 16.6435 20.5892 17.7271 21.673L18.0491 21.995H9.46552C8.79684 21.995 8.25458 22.5371 8.25458 23.2059C8.25458 23.8747 8.79684 24.4169 9.46552 24.4169H18.9364C18.0341 25.8701 17.2871 27.4291 16.7193 29.0713H1.21093C0.542257 29.0713 0 29.6135 0 30.2823C0 30.9511 0.542257 31.4932 1.21093 31.4932H16.027C15.6854 32.9953 15.4894 34.5518 15.4548 36.1477H7.74998C7.08131 36.1477 6.53905 36.6898 6.53905 37.3586C6.53905 38.0274 7.08131 38.5696 7.74998 38.5696H15.5272C15.6581 40.1721 15.9523 41.7289 16.3925 43.224H6.05468C5.386 43.224 4.84374 43.7662 4.84374 44.435C4.84374 45.1038 5.386 45.6459 6.05468 45.6459H17.2539C20.7769 54.0311 29.0737 59.9349 38.7241 59.9349C51.5585 59.9349 62 49.4934 62 36.6591C62 31.7743 60.4862 27.237 57.905 23.4893ZM55.4227 17.3744C55.5093 17.2879 55.608 17.2697 55.6756 17.2697C55.7432 17.2697 55.842 17.2879 55.9286 17.3744L58.0089 19.4547C58.0955 19.5413 58.1136 19.6401 58.1136 19.7077C58.1136 19.7752 58.0955 19.874 58.0088 19.9606L56.4167 21.5526C55.6233 20.6248 54.7585 19.76 53.8307 18.9666L55.4227 17.3744ZM32.1676 8.55459V4.77913C32.1676 4.61808 32.2987 4.48706 32.4596 4.48706H44.9538C45.1147 4.48706 45.2457 4.61808 45.2457 4.77913V8.55447C45.2457 8.71552 45.1147 8.84642 44.9538 8.84642H42.6377H34.7755H32.4596C32.2987 8.84654 32.1676 8.71552 32.1676 8.55459ZM35.9864 11.2684H41.4268V13.541C40.5398 13.4379 39.6384 13.3832 38.7242 13.3832C37.798 13.3832 36.8848 13.4393 35.9866 13.545V11.2684H35.9864ZM19.4395 19.4546L21.5198 17.3743C21.6064 17.2877 21.705 17.2696 21.7727 17.2696C21.8403 17.2696 21.9391 17.2877 22.0257 17.3743L23.6177 18.9665C22.6899 19.7599 21.825 20.6247 21.0316 21.5525L19.4395 19.9605C19.3 19.8211 19.3 19.5941 19.4395 19.4546ZM38.7241 57.5129C27.2252 57.5129 17.8701 48.1579 17.8701 36.6589C17.8701 25.16 27.2252 15.8049 38.7241 15.8049C50.223 15.8049 59.5781 25.16 59.5781 36.6589C59.5781 48.1579 50.223 57.5129 38.7241 57.5129Z" fill="black"/>
<path d="M46.7168 26.9538L40.9926 32.678C40.3232 32.2951 39.5492 32.075 38.7243 32.075C36.1967 32.075 34.1404 34.1312 34.1404 36.659C34.1404 39.1865 36.1967 41.2428 38.7243 41.2428C41.2519 41.2428 43.3081 39.1865 43.3081 36.659C43.3081 35.8341 43.088 35.06 42.7051 34.3906L48.4293 28.6664C48.9022 28.1935 48.9022 27.4268 48.4293 26.9538C47.9563 26.4809 47.1898 26.4809 46.7168 26.9538ZM38.7243 38.8211C37.5321 38.8211 36.5623 37.8512 36.5623 36.6591C36.5623 35.4669 37.5322 34.4969 38.7243 34.4969C39.9163 34.4969 40.8863 35.4669 40.8863 36.6591C40.8863 37.8512 39.9164 38.8211 38.7243 38.8211Z" fill="black"/>
<path d="M38.7245 20.959C39.043 20.959 39.3554 20.8294 39.5806 20.6042C39.8058 20.3789 39.9355 20.0665 39.9355 19.748C39.9355 19.4296 39.8059 19.1171 39.5806 18.8919C39.3554 18.6667 39.043 18.5371 38.7245 18.5371C38.4061 18.5371 38.0936 18.6667 37.8684 18.8919C37.6432 19.1171 37.5136 19.4296 37.5136 19.748C37.5136 20.0677 37.6431 20.3789 37.8684 20.6042C38.0938 20.8294 38.4061 20.959 38.7245 20.959Z" fill="black"/>
<path d="M38.7245 52.3584C38.4061 52.3584 38.0936 52.488 37.8684 52.7132C37.6432 52.9384 37.5136 53.2509 37.5136 53.5693C37.5136 53.889 37.6431 54.2002 37.8684 54.4255C38.0936 54.6519 38.4061 54.7803 38.7245 54.7803C39.043 54.7803 39.3554 54.6519 39.5806 54.4255C39.8058 54.2002 39.9355 53.8878 39.9355 53.5693C39.9355 53.2509 39.8059 52.9384 39.5806 52.7132C39.3554 52.488 39.043 52.3584 38.7245 52.3584Z" fill="black"/>
<path d="M26.7665 23.4897C26.4481 23.4897 26.1356 23.6193 25.9104 23.8446C25.6852 24.0698 25.5556 24.3822 25.5556 24.7007C25.5556 25.0204 25.6851 25.3316 25.9104 25.558C26.1356 25.7833 26.4481 25.9116 26.7665 25.9116C27.085 25.9116 27.3974 25.7833 27.6226 25.558C27.8478 25.3316 27.9775 25.0204 27.9775 24.7007C27.9775 24.3822 27.8479 24.071 27.6226 23.8446C27.3974 23.6193 27.085 23.4897 26.7665 23.4897Z" fill="black"/>
<path d="M50.6826 47.4058C50.3627 47.4058 50.0517 47.5353 49.8252 47.7606C49.6 47.9858 49.4716 48.2982 49.4716 48.6167C49.4716 48.9352 49.6 49.2476 49.8252 49.4728C50.0517 49.6981 50.3627 49.8276 50.6826 49.8276C51.001 49.8276 51.3135 49.6981 51.5386 49.4728C51.7638 49.2476 51.8935 48.9352 51.8935 48.6167C51.8935 48.2982 51.7639 47.9858 51.5386 47.7606C51.3135 47.5353 51.001 47.4058 50.6826 47.4058Z" fill="black"/>
<path d="M26.7665 47.4058C26.4481 47.4058 26.1356 47.5353 25.9104 47.7606C25.6852 47.9858 25.5556 48.2982 25.5556 48.6167C25.5556 48.9352 25.6851 49.2476 25.9104 49.4728C26.1358 49.6981 26.4481 49.8276 26.7665 49.8276C27.085 49.8276 27.3974 49.6981 27.6226 49.4728C27.8478 49.2476 27.9775 48.9352 27.9775 48.6167C27.9775 48.2982 27.8479 47.9858 27.6226 47.7606C27.3974 47.5353 27.085 47.4058 26.7665 47.4058Z" fill="black"/>
<path d="M21.8138 35.4478C21.4942 35.4478 21.1829 35.5773 20.9577 35.8026C20.7314 36.0278 20.6029 36.3402 20.6029 36.6587C20.6029 36.9772 20.7314 37.2896 20.9577 37.5148C21.1829 37.7413 21.4943 37.8696 21.8138 37.8696C22.1323 37.8696 22.4447 37.7413 22.67 37.5148C22.8951 37.2896 23.0248 36.9772 23.0248 36.6587C23.0248 36.3402 22.8952 36.0278 22.67 35.8026C22.4447 35.5773 22.1323 35.4478 21.8138 35.4478Z" fill="black"/>
<path d="M56.4914 35.8026C56.2662 35.5773 55.9538 35.4478 55.6353 35.4478C55.3156 35.4478 55.0044 35.5773 54.7793 35.8026C54.5541 36.0278 54.4244 36.3402 54.4244 36.6587C54.4244 36.9784 54.5539 37.2896 54.7793 37.5148C55.0044 37.7401 55.3168 37.8696 55.6353 37.8696C55.9538 37.8696 56.2662 37.7401 56.4914 37.5148C56.7167 37.2896 56.8463 36.9772 56.8463 36.6587C56.8461 36.3402 56.7167 36.0279 56.4914 35.8026Z" fill="black"/>
<path d="M1.21094 43.2241C0.892461 43.2241 0.580039 43.3525 0.354805 43.5777C0.12957 43.8042 0 44.1154 0 44.4351C0 44.7535 0.129449 45.0647 0.354805 45.2912C0.580039 45.5164 0.892461 45.646 1.21094 45.646C1.52941 45.646 1.84184 45.5164 2.06695 45.2912C2.29218 45.066 2.42188 44.7535 2.42188 44.4351C2.42188 44.1154 2.2923 43.8029 2.06695 43.5777C1.84184 43.3525 1.52941 43.2241 1.21094 43.2241Z" fill="black"/>
<path d="M55.2789 32.9821C55.9198 32.7911 56.2846 32.1168 56.0937 31.4758C55.2375 28.6032 53.6575 25.9597 51.5244 23.8312C49.391 21.7023 46.7438 20.128 43.8687 19.2783C43.2276 19.0886 42.5539 19.455 42.3643 20.0963C42.1746 20.7376 42.541 21.4112 43.1824 21.6007C48.2918 23.1109 52.2509 27.0611 53.7726 32.1674C53.9292 32.6929 54.4109 33.0327 54.9326 33.0327C55.047 33.0328 55.1635 33.0164 55.2789 32.9821Z" fill="black"/>
</g>
<defs>
<clipPath id="clip0">
<rect width="62" height="62" fill="white"/>
</clipPath>
</defs>
</svg>
