<svg xmlns="http://www.w3.org/2000/svg" xmlns:xlink="http://www.w3.org/1999/xlink"><defs><clipPath id="clip0"><path d="M0 0h62v62H0z"/></clipPath></defs><symbol id="arrow-down"><path d="M4.852 6.453c.21.211.562.211.773 0l4.57-4.547c.211-.234.211-.586 0-.797L9.656.57c-.21-.21-.562-.21-.797 0L5.25 4.18 1.617.57C1.383.36 1.031.36.82.57l-.539.54c-.21.21-.21.562 0 .796l4.57 4.547z"/></symbol><symbol id="arrow-left"><path d="M8.156 13.813l.625-.594c.156-.156.156-.406 0-.531L3.937 7.811h10.688A.38.38 0 0015 7.438v-.875a.403.403 0 00-.375-.375H3.937l4.844-4.843c.156-.125.156-.375 0-.532L8.156.22c-.125-.157-.375-.157-.531 0L1.094 6.75a.36.36 0 000 .531l6.531 6.532c.156.156.406.156.531 0z"/></symbol><symbol id="arrow-right"><path clip-rule="evenodd" d="M0 0h10l21 35-21 35H0l21-35L0 0z"/></symbol><symbol id="camera"><path d="M40.133 7.82h-1.29V6.531a3.872 3.872 0 00-3.866-3.867 3.872 3.872 0 00-3.868 3.867v1.29H27.14l-.837-2.513a3.862 3.862 0 00-3.669-2.644H10.882a3.862 3.862 0 00-3.67 2.644L6.377 7.82h-2.51A3.872 3.872 0 000 11.687V37.47a3.872 3.872 0 003.867 3.867h36.266A3.872 3.872 0 0044 37.469V11.687a3.872 3.872 0 00-3.867-3.867zm-6.446-1.289a1.29 1.29 0 012.578 0v1.29h-2.578V6.53zM9.66 6.124a1.287 1.287 0 011.223-.882h11.752c.556 0 1.047.354 1.223.882l.565 1.696H9.093l.566-1.696zM2.579 20.71h6.54a10.249 10.249 0 00-1.385 5.156c0 1.877.505 3.639 1.385 5.156h-6.54V20.711zm38.843 16.758a1.29 1.29 0 01-1.29 1.289H3.868a1.29 1.29 0 01-1.289-1.29v-3.866h8.656a10.27 10.27 0 006.813 2.578c2.61 0 4.995-.975 6.813-2.578h16.562v3.867zm-31.11-11.602c0-4.265 3.47-7.734 7.735-7.734 4.265 0 7.734 3.47 7.734 7.734 0 4.265-3.47 7.735-7.734 7.735-4.265 0-7.735-3.47-7.735-7.735zm31.11 5.156H26.975a10.248 10.248 0 001.384-5.156c0-1.877-.504-3.638-1.384-5.156h4.134V22c0 .712.577 1.29 1.29 1.29h5.156A1.29 1.29 0 0038.844 22v-1.29h2.578v10.313zM33.688 20.71v-2.578h2.578v2.578h-2.578zm7.734-2.578h-2.578v-1.29a1.29 1.29 0 00-1.29-1.288h-5.156c-.712 0-1.289.577-1.289 1.289v1.289h-6.25a10.27 10.27 0 00-6.812-2.578c-2.61 0-4.995.974-6.813 2.578H2.578v-6.445c0-.711.578-1.29 1.29-1.29h36.265c.71 0 1.289.579 1.289 1.29v6.445z"/><path d="M18.047 20.71a5.162 5.162 0 00-5.156 5.157 5.162 5.162 0 005.156 5.156 5.162 5.162 0 005.156-5.156 5.162 5.162 0 00-5.156-5.156zm0 7.735a2.581 2.581 0 01-2.578-2.578 2.581 2.581 0 012.578-2.578 2.581 2.581 0 012.578 2.578 2.581 2.581 0 01-2.578 2.578zM6.445 15.546a1.29 1.29 0 100-2.578 1.29 1.29 0 000 2.578z"/></symbol><symbol id="car"><path d="M14.561 14.402l-.903-2.793-.006-.02a2.048 2.048 0 00-1.927-1.38H5.213c-.864 0-1.639.556-1.927 1.38l-.911 2.822a2.65 2.65 0 00-.875.602 2.687 2.687 0 00-.762 1.876v4.614c0 .97.789 1.758 1.758 1.758a1.76 1.76 0 001.744-1.538h8.466a1.76 1.76 0 001.743 1.538c.92 0 1.758-.733 1.758-1.538v-4.878a2.64 2.64 0 00-1.646-2.443zm-9.348-2.434h6.512c.114 0 .221.08.264.194l.662 2.046H4.287l.661-2.046a.293.293 0 01.265-.194zm9.236 7.119a.88.88 0 01-.879.878H3.375a.88.88 0 01-.879-.878v-2.198c0-.5.403-.923.879-.923H13.57a.88.88 0 01.88.88v2.24zm-7.954-2.022h4v1.758h-4v-1.758zm6.856.879a.879.879 0 11-1.758 0 .879.879 0 011.758 0zm-7.955 0a.879.879 0 11-1.758 0 .879.879 0 011.758 0zm14.107-4.878a.88.88 0 110-1.758.88.88 0 010 1.758zM6.275 7.309a.879.879 0 110 1.758.879.879 0 010-1.758zM2.51 9.592a2.594 2.594 0 01-.013-.261V7.309c0-.701.27-1.368.762-1.876.257-.266.558-.47.885-.607l.903-2.689A2.048 2.048 0 016.97.762h6.511c.864 0 1.637.552 1.926 1.375l.2.733h-1.87c-.047-.104-.148-.351-.256-.351h-6.51a.294.294 0 00-.267.202l-.003.007-.619 1.9h2.965c-.158.248-.29.516-.39.801l-.01.03-.3.927H5.134c-.477 0-.88.423-.88.923v1.268A3.807 3.807 0 002.51 9.592zm20.73 1.496v4.878c0 .805-.839 1.538-1.759 1.538a1.76 1.76 0 01-1.743-1.538h-1.86a4.372 4.372 0 00-.793-1.757h3.518a.88.88 0 00.878-.88v-2.24a.88.88 0 00-.878-.88h-5.68a3.801 3.801 0 00-3.198-1.757h7.94l-.642-1.869a.292.292 0 00-.266-.197h-6.512a.293.293 0 00-.266.2l-.64 1.91H9.48l.838-2.488a2.048 2.048 0 011.926-1.38h6.512a2.05 2.05 0 011.927 1.38l.905 2.636a2.64 2.64 0 011.65 2.444zm-7.263 1.978l-.568-1.758h2.117v1.758h-1.548z"/></symbol><symbol id="cross"><path d="M11.703 9l5.063-5.016c.28-.28.28-.796 0-1.078l-1.172-1.172c-.281-.28-.797-.28-1.078 0L9.5 6.797 4.437 1.734c-.28-.28-.796-.28-1.078 0L2.188 2.906c-.282.281-.282.797 0 1.078L7.25 9l-5.063 5.063c-.28.28-.28.796 0 1.078l1.172 1.171a.794.794 0 001.079 0L9.5 11.25l5.016 5.063c.28.28.796.28 1.078 0l1.172-1.172a.798.798 0 000-1.079L11.703 9z"/><path d="M11.703 9L11 8.29l-.713.707.71.71.707-.707zm5.063-5.016l.703.71.004-.003-.707-.707zm-2.25-2.25l-.707-.707-.004.004.71.703zM9.5 6.797l-.707.707.71.71.707-.713-.71-.704zM2.187 3.984l-.707.707.004.004.704-.71zM7.25 9l.707.707.71-.71-.713-.707L7.25 9zm2.25 2.25l.71-.704-.707-.714-.71.71.707.708zm5.016 5.063l-.71.703.003.004.707-.707zm-2.11-6.603l5.063-5.015-1.407-1.421-5.063 5.016 1.408 1.42zm5.067-5.019c.672-.671.672-1.82 0-2.492l-1.415 1.414c-.075-.075-.081-.145-.081-.168 0-.023.006-.093.081-.168l1.415 1.414zm0-2.492L16.3 1.027l-1.414 1.414 1.171 1.172L17.473 2.2zM16.3 1.027c-.672-.672-1.82-.672-2.492 0l1.414 1.414c-.075.076-.145.082-.168.082-.023 0-.093-.006-.168-.082L16.3 1.027zm-2.496.004L8.79 6.093l1.42 1.408 5.016-5.063-1.42-1.407zM10.207 6.09L5.145 1.027 3.73 2.441l5.063 5.063 1.414-1.414zM5.145 1.027c-.672-.672-1.821-.672-2.493 0l1.414 1.414c-.075.076-.144.082-.168.082-.023 0-.092-.006-.168-.082l1.415-1.414zm-2.493 0L1.48 2.2l1.415 1.414 1.171-1.172-1.414-1.414zM1.48 2.2c-.671.672-.671 1.82 0 2.492l1.415-1.414c.075.075.082.145.082.168 0 .023-.007.093-.082.168L1.48 2.2zm.004 2.496L6.546 9.71l1.408-1.42L2.89 3.274l-1.407 1.42zm5.059 3.598L1.48 13.355l1.415 1.415 5.062-5.063-1.414-1.414zM1.48 13.355c-.671.672-.671 1.821 0 2.493l1.415-1.415c.075.076.082.145.082.169 0 .023-.007.092-.082.168L1.48 13.355zm0 2.493l1.172 1.172 1.414-1.415-1.171-1.171-1.415 1.414zm1.172 1.172c.672.671 1.82.671 2.493 0L3.73 15.605c.076-.075.145-.082.168-.082.024 0 .093.007.168.082L2.652 17.02zm2.493 0l5.062-5.063-1.414-1.414-5.063 5.062 1.415 1.415zm3.645-5.066l5.015 5.062 1.421-1.407-5.016-5.063-1.42 1.408zm5.019 5.066c.671.671 1.82.671 2.492 0l-1.414-1.415c.075-.075.145-.082.168-.082.023 0 .093.007.168.082l-1.415 1.415zm2.492 0l1.172-1.172-1.415-1.415-1.171 1.172L16.3 17.02zm1.172-1.172c.672-.672.672-1.82 0-2.493l-1.415 1.415c-.075-.076-.081-.145-.081-.168 0-.024.006-.093.081-.168l1.415 1.414zm0-2.493L12.41 8.293l-1.414 1.414 5.062 5.063 1.415-1.415z"/></symbol><symbol id="envelope"><path d="M18.125 0H1.875C.82 0 0 .86 0 1.875v11.25A1.85 1.85 0 001.875 15h16.25C19.141 15 20 14.18 20 13.125V1.875C20 .859 19.14 0 18.125 0zm0 1.875v1.602c-.898.742-2.305 1.836-5.273 4.18-.665.507-1.954 1.757-2.852 1.718-.938.04-2.227-1.21-2.89-1.719-2.97-2.343-4.376-3.437-5.235-4.18v-1.6h16.25zm-16.25 11.25V5.898c.86.704 2.148 1.72 4.063 3.243.859.664 2.382 2.148 4.062 2.109 1.64.04 3.125-1.445 4.023-2.11a642.89 642.89 0 014.102-3.242v7.227H1.875z"/></symbol><symbol id="filter-slide"><path d="M18.75.039H2.25A2.25 2.25 0 000 2.289v16.5c0 1.265.984 2.25 2.25 2.25h16.5a2.25 2.25 0 002.25-2.25v-16.5c0-1.22-1.031-2.25-2.25-2.25zM18 15.226a.57.57 0 01-.563.563H15v1.125a1.11 1.11 0 01-1.125 1.125h-.75c-.656 0-1.125-.47-1.125-1.125v-1.125H3.562A.542.542 0 013 15.226v-1.875a.57.57 0 01.563-.562H12v-1.125c0-.61.469-1.125 1.125-1.125h.75c.61 0 1.125.515 1.125 1.125v1.125h2.438c.28 0 .562.28.562.562v1.875zm0-7.5a.57.57 0 01-.563.563H9v1.125a1.11 1.11 0 01-1.125 1.125h-.75c-.656 0-1.125-.47-1.125-1.125V8.289H3.562A.542.542 0 013 7.726V5.851a.57.57 0 01.563-.562H6V4.164c0-.61.469-1.125 1.125-1.125h.75c.61 0 1.125.515 1.125 1.125v1.125h8.438c.28 0 .562.28.562.562v1.875z"/></symbol><symbol id="full-arrow-down"><path d="M10.907 5.368l-.473-.49c-.124-.123-.323-.123-.422 0l-3.853 3.8V.293C6.159.147 6.009 0 5.86 0h-.696a.3.3 0 00-.298.294v8.383L.988 4.878c-.1-.123-.298-.123-.422 0l-.473.49c-.124.098-.124.294 0 .417l5.196 5.123a.289.289 0 00.422 0l5.196-5.123c.124-.123.124-.319 0-.417z"/></symbol><symbol id="images"><path d="M22.5 18.5h-2.25v.469c0 .187-.14.281-.281.281H2.53c-.187 0-.281-.094-.281-.281V7.53c0-.14.094-.281.281-.281H3V5h-.75A2.25 2.25 0 000 7.25v12a2.22 2.22 0 002.25 2.25h18a2.25 2.25 0 002.25-2.25v-.75zm1.969-15.75c.14 0 .281.14.281.281V14.47c0 .187-.14.281-.281.281H7.03c-.187 0-.281-.094-.281-.281V3.03c0-.14.094-.281.281-.281h17.44zM24.75.5h-18A2.25 2.25 0 004.5 2.75v12A2.22 2.22 0 006.75 17h18A2.25 2.25 0 0027 14.75v-12C27 1.531 25.969.5 24.75.5zM12.375 5.75A1.88 1.88 0 0010.5 3.875 1.85 1.85 0 008.625 5.75c0 1.078.797 1.875 1.875 1.875a1.851 1.851 0 001.875-1.875zM9 10.25v2.25h13.5V8.75l-3.375-3.328a.54.54 0 00-.797 0L13.5 10.25l-1.875-1.828a.54.54 0 00-.797 0L9 10.25z"/></symbol><symbol id="phone"><path d="M24.11 1.172L19.233.047c-.515-.14-1.078.14-1.312.656l-2.25 5.25c-.188.469-.047.984.328 1.313l2.86 2.343a17.595 17.595 0 01-8.297 8.297l-2.344-2.86a1.16 1.16 0 00-1.313-.327l-5.25 2.25c-.515.234-.75.797-.656 1.312l1.125 4.875c.14.516.563.844 1.125.844C15.25 24 25 14.297 25 2.25c0-.516-.375-.938-.89-1.078z"/></symbol><symbol id="question"><path d="M5.014.75c-2.188 0-3.61.902-4.73 2.516a.622.622 0 00.163.875l1.176.902a.649.649 0 00.902-.11c.684-.847 1.204-1.34 2.27-1.34.848 0 1.887.52 1.887 1.34 0 .63-.52.93-1.34 1.395-.985.547-2.27 1.23-2.27 2.926V9.5c0 .383.301.656.657.656h1.996A.648.648 0 006.38 9.5v-.137c0-1.175 3.418-1.23 3.418-4.402C9.799 2.582 7.31.75 5.014.75zM4.74 10.977a1.896 1.896 0 00-1.914 1.886c0 1.04.848 1.887 1.914 1.887a1.89 1.89 0 001.887-1.887 1.89 1.89 0 00-1.887-1.886z"/></symbol><symbol id="stopwatch"><g clip-path="url(#clip0)" fill="#000"><path d="M57.905 23.49l1.816-1.817a2.76 2.76 0 00.815-1.965c0-.743-.29-1.44-.815-1.966l-2.08-2.08a2.762 2.762 0 00-1.965-.814c-.743 0-1.44.289-1.966.814l-1.816 1.816a23.163 23.163 0 00-8.045-3.525v-2.685h1.105a2.717 2.717 0 002.714-2.713V4.779a2.717 2.717 0 00-2.714-2.714H32.46a2.717 2.717 0 00-2.714 2.714v3.775a2.717 2.717 0 002.714 2.714h1.105v2.692a23.163 23.163 0 00-8.01 3.518l-1.817-1.816a2.761 2.761 0 00-1.965-.814c-.743 0-1.44.289-1.966.814l-2.08 2.08a2.783 2.783 0 000 3.931l.322.322H9.466a1.211 1.211 0 000 2.422h9.47a23.188 23.188 0 00-2.217 4.654H1.211a1.211 1.211 0 000 2.422h14.816a23.244 23.244 0 00-.572 4.655H7.75a1.211 1.211 0 000 2.422h7.777a23.16 23.16 0 00.865 4.654H6.055a1.211 1.211 0 000 2.422h11.199c3.523 8.385 11.82 14.289 21.47 14.289C51.56 59.935 62 49.493 62 36.659c0-4.885-1.514-9.422-4.095-13.17zm-2.482-6.116a.351.351 0 01.253-.104c.067 0 .166.018.253.104l2.08 2.08a.351.351 0 01.105.254.35.35 0 01-.105.253l-1.592 1.592a23.492 23.492 0 00-2.586-2.586l1.592-1.593zm-23.255-8.82V4.78c0-.16.13-.292.292-.292h12.494c.16 0 .292.131.292.292v3.775a.292.292 0 01-.292.292H32.46a.292.292 0 01-.292-.291zm3.818 2.714h5.44v2.273a23.394 23.394 0 00-5.44.004v-2.277zM19.44 19.455l2.08-2.08a.35.35 0 01.253-.105c.067 0 .166.018.253.104l1.592 1.593a23.492 23.492 0 00-2.586 2.585l-1.593-1.591a.358.358 0 010-.506zm19.284 38.058c-11.499 0-20.854-9.355-20.854-20.854 0-11.499 9.355-20.854 20.854-20.854 11.499 0 20.854 9.355 20.854 20.854 0 11.499-9.355 20.854-20.854 20.854z"/><path d="M46.717 26.954l-5.724 5.724a4.554 4.554 0 00-2.269-.603 4.589 4.589 0 00-4.584 4.584 4.589 4.589 0 004.584 4.584 4.589 4.589 0 004.584-4.584 4.55 4.55 0 00-.603-2.268l5.724-5.725a1.211 1.211 0 00-1.712-1.712zM38.724 38.82a2.164 2.164 0 01-2.162-2.162c0-1.192.97-2.162 2.162-2.162s2.162.97 2.162 2.162-.97 2.162-2.162 2.162zm0-17.861c.319 0 .631-.13.857-.355a1.22 1.22 0 00.354-.856c0-.318-.13-.63-.354-.856a1.22 1.22 0 00-.857-.355c-.318 0-.63.13-.856.355a1.22 1.22 0 00-.354.856c0 .32.13.63.354.856.226.225.538.355.856.355zm0 31.399c-.318 0-.63.13-.856.355a1.22 1.22 0 00-.354.856c0 .32.13.631.354.856.226.227.538.355.856.355a1.215 1.215 0 001.212-1.21c0-.32-.13-.632-.355-.857a1.22 1.22 0 00-.857-.355zM26.767 23.49c-.319 0-.631.13-.857.355a1.22 1.22 0 00-.354.856c0 .32.13.63.354.857.226.225.538.354.857.354.318 0 .63-.129.856-.354.225-.226.354-.538.354-.857 0-.319-.13-.63-.354-.856a1.22 1.22 0 00-.857-.355zm23.916 23.916c-.32 0-.631.13-.858.355a1.219 1.219 0 00-.353.856c0 .318.128.63.353.856.227.225.538.355.858.355.318 0 .63-.13.856-.355a1.22 1.22 0 00.355-.856c0-.319-.13-.631-.355-.856a1.22 1.22 0 00-.856-.355zm-23.916 0c-.319 0-.631.13-.857.355a1.22 1.22 0 00-.354.856c0 .318.13.63.354.856.226.225.538.355.857.355.318 0 .63-.13.856-.355a1.22 1.22 0 00.354-.856c0-.319-.13-.631-.354-.856a1.22 1.22 0 00-.857-.355zm-4.953-11.958a1.215 1.215 0 00-1.21 1.21 1.215 1.215 0 001.21 1.212 1.215 1.215 0 001.21-1.211c0-.319-.129-.631-.354-.856a1.22 1.22 0 00-.856-.355zm34.677.355a1.22 1.22 0 00-.856-.355c-.32 0-.63.13-.856.355a1.22 1.22 0 00-.355.856c0 .32.13.63.355.856.225.225.538.355.856.355.319 0 .631-.13.856-.355a1.22 1.22 0 00.355-.856c0-.319-.13-.631-.355-.856zM1.21 43.224c-.318 0-.63.129-.855.354a1.223 1.223 0 00-.355.857c0 .319.13.63.355.856.225.225.537.355.856.355.318 0 .63-.13.856-.355a1.22 1.22 0 00.355-.856c0-.32-.13-.632-.355-.857a1.219 1.219 0 00-.856-.354z"/><path d="M55.279 32.982a1.211 1.211 0 00.815-1.506 18.168 18.168 0 00-12.225-12.198 1.21 1.21 0 10-.687 2.323 15.639 15.639 0 0110.59 10.566 1.211 1.211 0 001.507.815z"/></g></symbol></svg>